<svg xmlns="http://www.w3.org/2000/svg" xmlns:xlink="http://www.w3.org/1999/xlink" aria-hidden="true" role="img" class="iconify iconify--logos" width="31.88" height="32" preserveAspectRatio="xMidYMid meet" viewBox="0 0 256 257"><defs><linearGradient id="IconifyId1813088fe1fbc01fb466" x1="-.828%" x2="57.636%" y1="7.652%" y2="78.411%"><stop offset="0%" stop-color="#41D1FF"></stop><stop offset="100%" stop-color="#BD34FE"></stop></linearGradient><linearGradient id="IconifyId1813088fe1fbc01fb467" x1="43.376%" x2="50.316%" y1="2.242%" y2="89.03%"><stop offset="0%" stop-color="#FFEA83"></stop><stop offset="8.333%" stop-color="#FFDD35"></stop><stop offset="100%" stop-color="#FFA800"></stop></linearGradient></defs><path fill="url(#IconifyId1813088fe1fbc01fb466)" d="M255.153 37.938L134.897 252.976c-2.483 4.44-8.862 4.466-11.382.048L.875 37.958c-2.746-4.814-1.571-10.952 2.631-13.774l25.505-18.227c2.515-1.79 5.917-1.79 8.432 0L123.568 71.31c2.483 1.79 6.574 1.79 9.058 0l86.624-65.353c2.483-1.79 6.574-1.79 9.058 0l25.505 18.227c4.202 2.822 5.377 8.96 2.631 13.774Z"></path><path fill="url(#IconifyId1813088fe1fbc01fb467)" d="M149.121 33.292L-1.4 252.976c-2.483 4.44-8.862 4.466-11.382.048L-126.5 37.958c-2.746-4.814-1.571-10.952 2.631-13.774l25.505-18.227c2.515-1.79 5.917-1.79 8.432 0L-2.907 71.31c2.483 1.79 6.574 1.79 9.058 0l86.624-65.353c2.483-1.79 6.574-1.79 9.058 0l25.505 18.227c4.202 2.822 5.377 8.96 2.631 13.774Z"></path></svg>
